HIERARCHY
ROOT reference
{
  OFFSET 0 0 0
  CHANNELS 6 Xposition Yposition Zposition Zrotation Xrotation Yrotation
  JOINT Hips
  {
    OFFSET 368.823 89.7904 194.012
    CHANNELS 3 Zrotation Xrotation Yrotation
    JOINT RightUpLeg
    {
      OFFSET -9.24587 -1.53924 -0.0496539
      CHANNELS 3 Zrotation Xrotation Yrotation
      JOINT RightLeg
      {
        OFFSET 0.0288962 -41.8853 0.065208
        CHANNELS 3 Zrotation Xrotation Yrotation
        JOINT RightFoot
        {
          OFFSET -0.153961 -42.496 -0.469978
          CHANNELS 3 Zrotation Xrotation Yrotation
          End Site
          {
            OFFSET 0 -7.69 17.5
          }
        }
      }
    }
    JOINT LeftUpLeg
    {
      OFFSET 9.30368 -1.65799 0.0114032
      CHANNELS 3 Zrotation Xrotation Yrotation
      JOINT LeftLeg
      {
        OFFSET 0.0812002 -41.8405 -0.136291
        CHANNELS 3 Zrotation Xrotation Yrotation
        JOINT LeftFoot
        {
          OFFSET 0.408244 -41.1613 0.400562
          CHANNELS 3 Zrotation Xrotation Yrotation
          End Site
          {
            OFFSET 0 -7.69 17.5
          }
        }
      }
    }
    JOINT Spine
    {
      OFFSET 0.0091145 14.2923 0.0603898
      CHANNELS 3 Zrotation Xrotation Yrotation
      JOINT Spine1
      {
        OFFSET 0.0313032 9.72692 0.0269052
        CHANNELS 3 Zrotation Xrotation Yrotation
        JOINT Spine2
        {
          OFFSET 0.0416827 10.1254 -0.000588186
          CHANNELS 3 Zrotation Xrotation Yrotation
          JOINT Spine3
          {
            OFFSET 0.0353017 9.71596 0.00525809
            CHANNELS 3 Zrotation Xrotation Yrotation
            JOINT Neck
            {
              OFFSET 0.0870676 10.3793 0.0454457
              CHANNELS 3 Zrotation Xrotation Yrotation
              JOINT Head
              {
                OFFSET 0.0878806 9.48152 0.0233162
                CHANNELS 3 Zrotation Xrotation Yrotation
                End Site
                {
                  OFFSET 0 15.95 0
                }
              }
            }
            JOINT RightShoulder
            {
              OFFSET -3.16008 6.92912 0.0289115
              CHANNELS 3 Zrotation Xrotation Yrotation
              JOINT RightArm
              {
                OFFSET -12.7589 0.0216905 0.0632467
                CHANNELS 3 Zrotation Xrotation Yrotation
                JOINT RightForeArm
                {
                  OFFSET -26.506 -0.0577999 0.0567862
                  CHANNELS 3 Zrotation Xrotation Yrotation
                  JOINT RightHand
                  {
                    OFFSET -25.9836 -0.0526551 -0.00138994
                    CHANNELS 3 Zrotation Xrotation Yrotation
                    JOINT RightHandThumb1
                    {
                      OFFSET -2.48905 0.190105 3.12053
                      CHANNELS 3 Zrotation Xrotation Yrotation
                      JOINT RightHandThumb2
                      {
                        OFFSET -3.68274 0 0
                        CHANNELS 3 Zrotation Xrotation Yrotation
                        JOINT RightHandThumb3
                        {
                          OFFSET -2.55832 0 0
                          CHANNELS 3 Zrotation Xrotation Yrotation
                          End Site
                          {
                            OFFSET -2.194 0 0
                          }
                        }
                      }
                    }
                    JOINT RightInHandIndex
                    {
                      OFFSET -3.22368 0.508421 1.97842
                      CHANNELS 3 Zrotation Xrotation Yrotation
                      JOINT RightHandIndex1
                      {
                        OFFSET -5.21684 -0.091368 0.999158
                        CHANNELS 3 Zrotation Xrotation Yrotation
                        JOINT RightHandIndex2
                        {
                          OFFSET -3.61937 0 0
                          CHANNELS 3 Zrotation Xrotation Yrotation
                          JOINT RightHandIndex3
                          {
                            OFFSET -2.0521 0 0
                            CHANNELS 3 Zrotation Xrotation Yrotation
                            End Site
                            {
                              OFFSET -1.805 0 0
                            }
                          }
                        }
                      }
                    }
                    JOINT RightInHandMiddle
                    {
                      OFFSET -3.38211 0.517263 0.756737
                      CHANNELS 3 Zrotation Xrotation Yrotation
                      JOINT RightHandMiddle1
                      {
                        OFFSET -5.17411 -0.084 0.313895
                        CHANNELS 3 Zrotation Xrotation Yrotation
                        JOINT RightHandMiddle2
                        {
                          OFFSET -3.94947 0 0
                          CHANNELS 3 Zrotation Xrotation Yrotation
                          JOINT RightHandMiddle3
                          {
                            OFFSET -2.47579 0 0
                            CHANNELS 3 Zrotation Xrotation Yrotation
                            End Site
                            {
                              OFFSET -1.975 0 0
                            }
                          }
                        }
                      }
                    }
                    JOINT RightInHandRing
                    {
                      OFFSET -3.36516 0.537895 -0.128947
                      CHANNELS 3 Zrotation Xrotation Yrotation
                      JOINT RightHandRing1
                      {
                        OFFSET -4.63474 -0.022105 -0.478947
                        CHANNELS 3 Zrotation Xrotation Yrotation
                        JOINT RightHandRing2
                        {
                          OFFSET -3.44238 0 0
                          CHANNELS 3 Zrotation Xrotation Yrotation
                          JOINT RightHandRing3
                          {
                            OFFSET -2.3881 0 0
                            CHANNELS 3 Zrotation Xrotation Yrotation
                            End Site
                            {
                              OFFSET -1.857 0 0
                            }
                          }
                        }
                      }
                    }
                    JOINT RightInHandPinky
                    {
                      OFFSET -3.16105 0.469368 -1.20179
                      CHANNELS 3 Zrotation Xrotation Yrotation
                      JOINT RightHandPinky1
                      {
                        OFFSET -4.14105 -0.022105 -1.09053
                        CHANNELS 3 Zrotation Xrotation Yrotation
                        JOINT RightHandPinky2
                        {
                          OFFSET -2.75653 0 0
                          CHANNELS 3 Zrotation Xrotation Yrotation
                          JOINT RightHandPinky3
                          {
                            OFFSET -1.74189 0 0
                            CHANNELS 3 Zrotation Xrotation Yrotation
                            End Site
                            {
                              OFFSET -1.645 0 0
                            }
                          }
                        }
                      }
                    }
                  }
                }
              }
            }
            JOINT LeftShoulder
            {
              OFFSET 3.24363 6.91883 -0.0263005
              CHANNELS 3 Zrotation Xrotation Yrotation
              JOINT LeftArm
              {
                OFFSET 12.8387 -0.0254922 -0.065819
                CHANNELS 3 Zrotation Xrotation Yrotation
                JOINT LeftForeArm
                {
                  OFFSET 26.503 -0.0679028 -0.0690065
                  CHANNELS 3 Zrotation Xrotation Yrotation
                  JOINT LeftHand
                  {
                    OFFSET 25.9897 -0.0384179 -0.0536179
                    CHANNELS 3 Zrotation Xrotation Yrotation
                    JOINT LeftHandThumb1
                    {
                      OFFSET 2.48905 0.190105 3.12053
                      CHANNELS 3 Zrotation Xrotation Yrotation
                      JOINT LeftHandThumb2
                      {
                        OFFSET 3.68274 0 0
                        CHANNELS 3 Zrotation Xrotation Yrotation
                        JOINT LeftHandThumb3
                        {
                          OFFSET 2.55832 0 0
                          CHANNELS 3 Zrotation Xrotation Yrotation
                          End Site
                          {
                            OFFSET 2.194 0 0
                          }
                        }
                      }
                    }
                    JOINT LeftInHandIndex
                    {
                      OFFSET 3.22368 0.508421 1.97842
                      CHANNELS 3 Zrotation Xrotation Yrotation
                      JOINT LeftHandIndex1
                      {
                        OFFSET 5.21684 -0.091368 0.999158
                        CHANNELS 3 Zrotation Xrotation Yrotation
                        JOINT LeftHandIndex2
                        {
                          OFFSET 3.61937 0 0
                          CHANNELS 3 Zrotation Xrotation Yrotation
                          JOINT LeftHandIndex3
                          {
                            OFFSET 2.0521 0 0
                            CHANNELS 3 Zrotation Xrotation Yrotation
                            End Site
                            {
                              OFFSET 1.805 0 0
                            }
                          }
                        }
                      }
                    }
                    JOINT LeftInHandMiddle
                    {
                      OFFSET 3.38211 0.517263 0.756737
                      CHANNELS 3 Zrotation Xrotation Yrotation
                      JOINT LeftHandMiddle1
                      {
                        OFFSET 5.17411 -0.084 0.313895
                        CHANNELS 3 Zrotation Xrotation Yrotation
                        JOINT LeftHandMiddle2
                        {
                          OFFSET 3.94947 0 0
                          CHANNELS 3 Zrotation Xrotation Yrotation
                          JOINT LeftHandMiddle3
                          {
                            OFFSET 2.47579 0 0
                            CHANNELS 3 Zrotation Xrotation Yrotation
                            End Site
                            {
                              OFFSET 1.975 0 0
                            }
                          }
                        }
                      }
                    }
                    JOINT LeftInHandRing
                    {
                      OFFSET 3.36516 0.537895 -0.128947
                      CHANNELS 3 Zrotation Xrotation Yrotation
                      JOINT LeftHandRing1
                      {
                        OFFSET 4.63474 -0.022105 -0.478947
                        CHANNELS 3 Zrotation Xrotation Yrotation
                        JOINT LeftHandRing2
                        {
                          OFFSET 3.44238 0 0
                          CHANNELS 3 Zrotation Xrotation Yrotation
                          JOINT LeftHandRing3
                          {
                            OFFSET 2.3881 0 0
                            CHANNELS 3 Zrotation Xrotation Yrotation
                            End Site
                            {
                              OFFSET 1.857 0 0
                            }
                          }
                        }
                      }
                    }
                    JOINT LeftInHandPinky
                    {
                      OFFSET 3.16105 0.469368 -1.20179
                      CHANNELS 3 Zrotation Xrotation Yrotation
                      JOINT LeftHandPinky1
                      {
                        OFFSET 4.14105 -0.022105 -1.09053
                        CHANNELS 3 Zrotation Xrotation Yrotation
                        JOINT LeftHandPinky2
                        {
                          OFFSET 2.75653 0 0
                          CHANNELS 3 Zrotation Xrotation Yrotation
                          JOINT LeftHandPinky3
                          {
                            OFFSET 1.74189 0 0
                            CHANNELS 3 Zrotation Xrotation Yrotation
                            End Site
                            {
                              OFFSET 1.645 0 0
                            }
                          }
                        }
                      }
                    }
                  }
                }
              }
            }
          }
        }
      }
    }
  }
}
MOTION
Frames: 2
Frame Time: 0.00833333
1.500000000000000000e+02 0.000000000000000000e+00 0.000000000000000000e+00 0.000000000000000000e+00 0.000000000000000000e+00 -0.000000000000000000e+00 3.960258644088976085e-03 6.699586587726723622e-03 8.000704724113126207e-03 8.802021799070291206e-04 -4.777094567498762351e-03 -8.126652892676460363e-03 -7.065570593702998406e-03 -2.394827871616965215e-03 -3.578556492587801809e-03 8.452298691551065127e-03 4.711168384728282171e-03 3.787886071774613020e-03 2.527358356265270705e-03 -5.227269233546293515e-04 -1.594855897983983931e-02 -1.002937674372845166e-02 -7.161243234917252613e-03 1.209808294969665250e-02 -3.190154912718610059e-03 2.354679181616464723e-02 5.395831026402823742e-03 4.754475783511938683e-03 2.505898585495859154e-03 -2.468093852073415060e-03 1.147988409608533249e-03 7.934275614807955379e-04 -9.148612851396894152e-04 1.905917111566359260e-03 1.377745615751184297e-03 -1.385100415970520618e-03 2.090451245433006756e-05 -4.280954801829829722e-06 2.330889319258801630e-04 5.965390341884236735e-04 -3.197513031807312344e-03 1.375590058455125261e-02 -3.301739016064560097e-04 2.892164235671921884e-04 -6.785752747753714779e-03 -1.323112735262548098e-03 2.493144339070459299e-03 -7.865028701039646075e-03 1.285754124688839525e-02 -6.613677277156795875e-03 1.283995667937632215e-02 -1.002680560591332620e-02 -7.760763709558840887e-03 5.105232361924111686e-03 2.540735695054820035e-04 6.123365157841505896e-02 5.140291546046275861e-02 0.000000000000000000e+00 0.000000000000000000e+00 0.000000000000000000e+00 3.190393591253499490e-16 -5.797189915408730777e-15 0.000000000000000000e+00 -1.951129372964936798e-15 3.015435610868432169e-16 0.000000000000000000e+00 -2.760003561308321504e-15 -5.377096190591993413e-16 -2.436920874908703062e-16 0.000000000000000000e+00 0.000000000000000000e+00 0.000000000000000000e+00 0.000000000000000000e+00 -3.296191233584196424e-15 1.380295005421236171e-16 0.000000000000000000e+00 2.519618177241272991e-15 -1.147228612177155086e-15 -2.760003561308321504e-15 -5.377096190591993413e-16 -2.436920874908703062e-16 0.000000000000000000e+00 -2.014402301621518318e-15 -6.371800778174199951e-16 0.000000000000000000e+00 -6.192057904173571432e-16 -2.662432326624438874e-16 0.000000000000000000e+00 1.156763773035567329e-15 -3.685655174898858270e-16 -2.760003561308321504e-15 -5.377096190591993413e-16 -2.436920874908703062e-16 0.000000000000000000e+00 0.000000000000000000e+00 0.000000000000000000e+00 0.000000000000000000e+00 -1.572789951053996536e-15 -1.599006547442242518e-15 0.000000000000000000e+00 7.692064544697319169e-16 1.101421733928514383e-17 -2.760003561308321504e-15 -5.377096190591993413e-16 -2.436920874908703062e-16 0.000000000000000000e+00 0.000000000000000000e+00 0.000000000000000000e+00 0.000000000000000000e+00 -2.500505693757853964e-16 -1.175539679183423380e-16 0.000000000000000000e+00 -1.409730293631903804e-16 4.069962817030141276e-18 -5.434669237894598597e-03 -3.608121987275819415e-03 -1.429449522582158794e-02 -8.302954894790055829e-03 6.893203018400399350e-04 -2.894557460180195458e-03 -9.515134034940542175e-04 9.514415277946199068e-03 4.651497595503490366e-03 -1.577745243604161771e-03 -1.039029697361469086e-02 2.485701370463610366e-02 0.000000000000000000e+00 0.000000000000000000e+00 0.000000000000000000e+00 -2.197450149244134202e-15 1.876376694351694915e-15 0.000000000000000000e+00 -7.813228824434111783e-16 2.895328464437738930e-15 0.000000000000000000e+00 4.109368016002678023e-15 2.256401763492422181e-17 1.904626690315826727e-16 0.000000000000000000e+00 0.000000000000000000e+00 0.000000000000000000e+00 0.000000000000000000e+00 -1.017657668371314895e-15 1.550118199693536966e-15 0.000000000000000000e+00 9.496044963879789385e-16 -1.674028575864166522e-15 4.109368016002678023e-15 2.256401763492422181e-17 1.904626690315826727e-16 0.000000000000000000e+00 4.288046915129720874e-16 -6.021081375866049723e-16 0.000000000000000000e+00 -8.780789282586217541e-16 -1.305029465954495983e-15 0.000000000000000000e+00 1.444509507265391157e-15 2.968218157050972659e-16 4.109368016002678023e-15 2.256401763492422181e-17 1.904626690315826727e-16 0.000000000000000000e+00 0.000000000000000000e+00 0.000000000000000000e+00 0.000000000000000000e+00 -1.128806076362183724e-15 -4.022472570681706176e-16 0.000000000000000000e+00 6.401602666968676240e-17 -6.173966328969703371e-16 4.109368016002678023e-15 2.256401763492422181e-17 1.904626690315826727e-16 0.000000000000000000e+00 0.000000000000000000e+00 0.000000000000000000e+00 0.000000000000000000e+00 2.620776939600277393e-17 1.144871762773990653e-16 0.000000000000000000e+00 1.803327154729618446e-16 -1.469197961922528340e-17
1.500000000000000000e+02 0.000000000000000000e+00 0.000000000000000000e+00 0.000000000000000000e+00 0.000000000000000000e+00 -0.000000000000000000e+00 2.540384061110021255e-03 -1.220651626104336460e-03 5.541203174112886189e-03 -1.691613929320325081e-04 -3.949765971323827840e-03 -3.754494952655614698e-03 1.175969572018288438e-03 9.453291337371725559e-04 1.001924471500578034e-02 -3.431808936824183066e-03 -3.261031238952329884e-03 -9.661418121500127409e-03 1.758777598604079496e-03 -5.221453428374074092e-03 1.549633021084221955e-05 9.448704762786679784e-05 -1.784406118759532473e-03 -6.523010738152607707e-03 7.553329454702171868e-03 -8.999151231109140878e-03 1.583707563148470301e-03 9.205897028962259018e-04 -5.238721908271759022e-03 -1.434810423666227353e-02 4.031349745541575134e-04 -1.424396585231023013e-03 -3.468716121325678831e-03 6.436394237512512058e-04 -2.300114068064486143e-03 -5.534731240939788285e-03 -1.255317086402710645e-05 -1.625908600447578640e-05 1.539654861919670240e-04 7.369193420442428063e-04 1.621053327468954201e-03 1.228042538943681719e-02 1.275954551028850954e-03 6.976634902752073403e-03 -4.274120985084879296e-03 -2.276251996224986154e-03 -1.443719061400293208e-04 8.261798482537632132e-03 -4.373505647763905636e-04 1.411717104272915309e-02 9.938411883176321866e-04 6.501717589237855296e-04 2.048175693812753512e-03 1.228681663909956222e-03 2.801790240774891094e-04 -6.100697610200683102e-02 -3.395916611866288404e-02 0.000000000000000000e+00 0.000000000000000000e+00 0.000000000000000000e+00 5.194269434839474888e-16 5.800686665557605348e-15 0.000000000000000000e+00 1.545542633305730285e-15 -5.942158418403383188e-16 0.000000000000000000e+00 3.237227641463609115e-15 6.444296567168350294e-16 1.660836554943761824e-16 0.000000000000000000e+00 0.000000000000000000e+00 0.000000000000000000e+00 0.000000000000000000e+00 2.623401415206341688e-15 3.829848972107588922e-16 0.000000000000000000e+00 -2.219141814071347098e-15 1.302050874200995297e-15 3.237227641463609115e-15 6.444296567168350294e-16 1.660836554943761824e-16 0.000000000000000000e+00 1.632541091302217759e-15 2.405788648238659609e-16 0.000000000000000000e+00 -2.277266739627446553e-19 1.258718265635983445e-16 0.000000000000000000e+00 -6.566561903094564273e-16 3.539515015778941162e-16 3.237227641463609115e-15 6.444296567168350294e-16 1.660836554943761824e-16 0.000000000000000000e+00 0.000000000000000000e+00 0.000000000000000000e+00 0.000000000000000000e+00 1.327127993947886052e-15 1.581603055101706402e-15 0.000000000000000000e+00 -2.456652990183417010e-16 -4.270617242567089431e-17 3.237227641463609115e-15 6.444296567168350294e-16 1.660836554943761824e-16 0.000000000000000000e+00 0.000000000000000000e+00 0.000000000000000000e+00 0.000000000000000000e+00 3.082410548884691322e-16 1.432444142423479659e-16 0.000000000000000000e+00 3.459481722664423605e-16 1.141050436833928739e-16 4.530829281536568470e-03 6.221021824848120552e-03 1.765187702160469357e-02 4.066814970916906094e-03 2.161022207423681819e-03 1.181204896646657551e-02 1.232139620746559340e-03 -6.224429906984789429e-03 1.158058957574656725e-03 1.871457425165591517e-03 1.095988862912124912e-02 -2.646560789522814719e-02 0.000000000000000000e+00 0.000000000000000000e+00 0.000000000000000000e+00 2.145341712455753932e-15 -2.614902985875326968e-15 0.000000000000000000e+00 7.487833341076525762e-16 -2.620230558962211944e-15 0.000000000000000000e+00 -3.690218973747687677e-15 1.598453436156635445e-16 -6.637080866404941753e-16 0.000000000000000000e+00 0.000000000000000000e+00 0.000000000000000000e+00 0.000000000000000000e+00 1.316224982257856343e-16 -1.101098361334943738e-15 0.000000000000000000e+00 -8.863155366196348667e-16 1.599259345736893113e-15 -3.690218973747687677e-15 1.598453436156635445e-16 -6.637080866404941753e-16 0.000000000000000000e+00 -7.672314503955379939e-16 2.893222316416929852e-16 0.000000000000000000e+00 7.573866051907286072e-16 1.367184763596040573e-15 0.000000000000000000e+00 -1.165459624270707045e-15 -1.680040172332307449e-16 -3.690218973747687677e-15 1.598453436156635445e-16 -6.637080866404941753e-16 0.000000000000000000e+00 0.000000000000000000e+00 0.000000000000000000e+00 0.000000000000000000e+00 9.284150011476144530e-16 3.767939139403792441e-16 0.000000000000000000e+00 7.342523762805869877e-17 4.437123814826984669e-16 -3.690218973747687677e-15 1.598453436156635445e-16 -6.637080866404941753e-16 0.000000000000000000e+00 0.000000000000000000e+00 0.000000000000000000e+00 0.000000000000000000e+00 -1.302779290363609184e-18 -2.229495817183676604e-17 0.000000000000000000e+00 -2.963200560332787489e-16 -4.700784292508576497e-17
